# xmcd
# 
# Track frame offsets:
#     150
#     16305
#     33570
#     50025
#     68972
#     83122
#     102817
#     136702
#     169982
#     202365
#     220327
#     239952
#     258770
#     276847
#     299217
#     313647
# 
# Disc length: 4652
# 
# Revision: 6
# Processed by: cddbd v1.5.2PL0 Copyright (c) Steve Scherf et al.
# Submitted via: fre:ac v1.0.27
# 
DISCID=02122a10
DTITLE=Eric Clapton - Story
DYEAR=1990
DGENRE=Blues
TTITLE0=Cocaine
TTITLE1=Lay Down Sally
TTITLE2=Wonderful Tonight
TTITLE3=Crossroads
TTITLE4=After Midnight
TTITLE5=I Shot The Sheriff
TTITLE6=Further On Up The Road (Live)
TTITLE7=Rambling On My Mind (Live)
TTITLE8=Layla
TTITLE9=Next Time You See Her
TTITLE10=Knockin' On Heaven's Door
TTITLE11=Sunshine Of Your Love
TTITLE12=Tulsa Time (live)
TTITLE13=Let It Grow
TTITLE14=Steady Rollin Man
TTITLE15=Have You Ever Loved A Woman? (Live)
EXTD=
EXTT0=
EXTT1=
EXTT2=
EXTT3=
EXTT4=
EXTT5=
EXTT6=
EXTT7=
EXTT8=
EXTT9=
EXTT10=
EXTT11=
EXTT12=
EXTT13=
EXTT14=
EXTT15=
PLAYORDER=
